<svg version="1.1" id="_x32_" xmlns="http://www.w3.org/2000/svg" width="800" height="800" viewBox="0 0 512 512" xml:space="preserve">
  <style>
    .st0{fill:#f06a00}
  </style>
  <path class="st0" d="M50.57 55.239C27.758 29.036-13.992 53.833 4.68 95.145c12.438 27.563 36.469 94.922 70.016 143.438 33.563 48.516 69.328 43.328 105.453 55.078l25.953 13.422 177.547 204.204 35.906-31.234.188-.156c-5.25-6.047-166.719-191.782-230.563-265.204A1052830 1052830 0 0 1 50.57 55.239m426.094 38.312-61.938 71.266c-3.969 4.563-10.859 5.031-15.422 1.063l-2.203-1.906c-4.531-3.953-5.031-10.844-1.063-15.406l62.234-71.594c10.219-11.734 5.375-22.125-2.219-28.719-7.578-6.578-18.531-9.938-28.75 1.813l-62.234 71.594c-3.953 4.547-10.859 5.031-15.406 1.063l-2.188-1.906c-4.563-3.953-5.047-10.859-1.094-15.406l61.953-71.266c18.297-21.031-12.297-46.375-30.156-25.828a614145 614145 0 0 0-59.156 68.031c-33 37.688-32.5 55.344-27.844 80.078 3.781 19.938 9.328 34.281-11.156 57.844l-30.234 34.781 31.719 36.453 34.641-39.844c20.469-23.547 35.453-20.047 55.719-19.094 25.156 1.203 42.703-.766 75.422-38.672 0 0 37.766-43.469 59.156-68.063 17.86-20.547-11.5-47.297-29.781-26.282"/>
  <path class="st0" d="M185.758 322.692 49.102 479.88l36.109 31.406 133.844-153.938-27.547-31.687z"/>
</svg>
