<svg xmlns="http://www.w3.org/2000/svg" viewBox="0 0 489.9 489.9" xml:space="preserve">
  <path fill="#FF6D00" d="M489.4 183.08c-4.7-26.7-37.2-44.4-79.5-55.9l40.7-32.6c8.3-7.3 10.4-20.8 3.1-29.1s-20.8-10.4-29.1-3.1l-67.5 54.1c-38.8-5.7-79.5-7.9-112.1-7.9-87.4 0-233.9 15.5-244.4 74.5-.6 2.6-.6 7.5-.6 7.8 1.6 133.6 110 241.1 244 241.1 133.3 0 241.2-106.3 245.9-238.9 0-1-.1-8.4-.5-10m-448.7 6.8c9.4-14.6 83.4-40.7 204.3-40.7 24.5 0 47 1.1 67.6 2.9l-96.6 77.4-.5.5c-103.6-3.7-167.2-26.7-174.8-40.1M245 391.48c-93.4 0-172.3-63.4-196.1-149.4 53 22.2 137.7 29.1 196.1 29.1 58.5 0 143.3-7.4 196.3-29.6-23.6 86.3-102.7 149.9-196.3 149.9m36.8-161.7 87.3-69.9c47.1 8.9 75.3 21.5 80.2 30.1-8.3 13-68.4 35.2-167.5 39.8"/>
</svg>
