<svg xmlns="http://www.w3.org/2000/svg" viewBox="0 0 54.209 54.209" xml:space="preserve"><path d="M54.203 29.135 54 27.187v-1.948c0-.596-.179-1.076-.531-1.426-.593-.589-1.419-.587-2.212-.575H27.251L6.447 1.943C5.306.802 3.648.651 2.583 1.56l-.256.121-.122.123c-1.1 1.101-1.101 3.343-.009 4.435l16.6 17H2.744c-.796 0-1.62-.015-2.212.575-.353.349-.532.829-.532 1.425v2c0 .033.008.07.009.103H.005l.023.217c.01.115.015.228.036.348l.146 1.404C.255 42.28 12.348 53.24 27.208 53.24c14.888 0 27-11.001 27-24.001zm-2.931-3.896c.225 0 .54-.006.728.018v1.982c0 .82-.68 1.956-1 2h-7v-4zM35.5 27.197c-1.93 0-3.5 1.561-3.5 3.479v2.479c0 .815-.673 1.479-1.5 1.479s-1.5-.662-1.5-1.478v-7.918h13v13.703c0 .815-.673 1.479-1.5 1.479s-1.5-.663-1.5-1.478v-8.265c0-1.919-1.57-3.48-3.5-3.48M3.619 4.833c-.295-.295-.322-1.122-.08-1.513l.192-.09.123-.123c.278-.276.834-.095 1.17.242l19.429 19.889h-2.862zm-.891 20.405H27v4H3.003c-.275-.037-.805-.865-.958-1.617L2 27.187v-1.93a6 6 0 0 1 .728-.019m24.481 26.001c-13.062 0-23.809-8.98-24.902-20.131.22.08.45.13.693.13h24v1.918c0 1.918 1.57 3.479 3.5 3.479s3.5-1.561 3.5-3.479v-2.479c0-.815.673-1.479 1.5-1.479s1.5.664 1.5 1.479v8.265c0 1.918 1.57 3.479 3.5 3.479S44 40.86 44 38.942v-7.703h7c.412 0 .788-.137 1.13-.351-.972 11.252-11.773 20.351-24.921 20.351"/><path d="M26.37 47.467c-5.445-.558-10.426-2.707-14.025-6.052a1 1 0 1 0-1.361 1.465c3.916 3.639 9.307 5.975 15.182 6.577q.052.005.103.005a1 1 0 0 0 .101-1.995M8.161 37.213a1 1 0 1 0-1.602 1.197c.354.474.753.911 1.188 1.302a.995.995 0 0 0 1.412-.074 1 1 0 0 0-.075-1.412 7 7 0 0 1-.923-1.013"/></svg>